<?xml version="1.0" encoding="utf-8"?>
<!-- Generator: Adobe Illustrator 19.0.0, SVG Export Plug-In . SVG Version: 6.00 Build 0)  -->
<svg version="1.1" id="Layer_1" xmlns="http://www.w3.org/2000/svg" xmlns:xlink="http://www.w3.org/1999/xlink" x="0px" y="0px"
	 viewBox="-76 273.4 457.4 247.6" style="enable-background:new -76 273.4 457.4 247.6;" xml:space="preserve">
<style type="text/css">
	.st0{fill:#1F3A53;}
	.st1{fill:none;}
	.st2{display:none;}
	.st3{display:inline;fill:#148140;}
	.st4{font-family:'ArialMT';}
	.st5{font-size:47px;}
	.st6{letter-spacing:-1;}
</style>
<g id="p2">
	<g>
		<circle class="st0" cx="-47.1" cy="341.9" r="8.5"/>
		<circle class="st0" cx="52.9" cy="321.9" r="8.5"/>
		<circle class="st0" cx="132.9" cy="341.9" r="8.5"/>
		<circle class="st0" cx="92.9" cy="321.9" r="8.5"/>
		<circle class="st0" cx="132.9" cy="381.9" r="8.5"/>
		<circle class="st0" cx="192.9" cy="401.9" r="8.5"/>
		<circle class="st0" cx="252.9" cy="421.9" r="8.5"/>
		<circle class="st0" cx="72.9" cy="341.9" r="8.5"/>
		<circle class="st0" cx="72.9" cy="381.9" r="8.5"/>
		<circle class="st0" cx="-27.1" cy="361.9" r="8.5"/>
		<circle class="st0" cx="-7.1" cy="421.9" r="8.5"/>
		<circle class="st0" cx="-47.1" cy="401.9" r="8.5"/>
		<circle class="st0" cx="52.9" cy="401.9" r="8.5"/>
		<circle class="st0" cx="332.9" cy="461.9" r="8.5"/>
		<circle class="st0" cx="-27.1" cy="461.9" r="8.5"/>
		<circle class="st0" cx="172.9" cy="381.9" r="8.5"/>
		<circle class="st0" cx="192.9" cy="301.9" r="8.5"/>
		<circle class="st0" cx="152.9" cy="441.9" r="8.5"/>
		<circle class="st0" cx="272.9" cy="381.9" r="8.5"/>
		<circle class="st0" cx="292.9" cy="321.9" r="8.5"/>
		<circle class="st0" cx="332.9" cy="361.9" r="8.5"/>
		<circle class="st0" cx="312.9" cy="421.9" r="8.5"/>
		<circle class="st0" cx="-27.1" cy="301.9" r="8.5"/>
		<circle class="st0" cx="32.9" cy="281.9" r="8.5"/>
	</g>
	<g>
		<circle class="st0" cx="-47.1" cy="361.9" r="8.5"/>
		<circle class="st0" cx="52.9" cy="361.9" r="8.5"/>
		<circle class="st0" cx="52.9" cy="381.9" r="8.5"/>
		<circle class="st0" cx="112.9" cy="341.9" r="8.5"/>
		<circle class="st0" cx="172.9" cy="281.9" r="8.5"/>
		<circle class="st0" cx="192.9" cy="381.9" r="8.5"/>
		<circle class="st0" cx="192.9" cy="441.9" r="8.5"/>
		<circle class="st0" cx="372.9" cy="441.9" r="8.5"/>
		<circle class="st0" cx="352.9" cy="421.9" r="8.5"/>
		<circle class="st0" cx="-7.1" cy="401.9" r="8.5"/>
		<circle class="st0" cx="132.9" cy="441.9" r="8.5"/>
		<circle class="st0" cx="52.9" cy="461.9" r="8.5"/>
		<circle class="st0" cx="352.9" cy="321.9" r="8.5"/>
		<circle class="st0" cx="292.9" cy="361.9" r="8.5"/>
		<circle class="st0" cx="192.9" cy="321.9" r="8.5"/>
		<circle class="st0" cx="152.9" cy="361.9" r="8.5"/>
		<circle class="st0" cx="132.9" cy="301.9" r="8.5"/>
		<circle class="st0" cx="272.9" cy="401.9" r="8.5"/>
		<circle class="st0" cx="312.9" cy="401.9" r="8.5"/>
		<circle class="st0" cx="272.9" cy="341.9" r="8.5"/>
		<circle class="st0" cx="292.9" cy="301.9" r="8.5"/>
		<circle class="st0" cx="312.9" cy="321.9" r="8.5"/>
		<circle class="st0" cx="312.9" cy="341.9" r="8.5"/>
		<circle class="st0" cx="332.9" cy="381.9" r="8.5"/>
		<circle class="st0" cx="-47.1" cy="301.9" r="8.5"/>
		<circle class="st0" cx="-7.1" cy="441.9" r="8.5"/>
		<circle class="st0" cx="32.9" cy="421.9" r="8.5"/>
	</g>
	<g>
		<circle class="st0" cx="-67.3" cy="321.9" r="8.5"/>
		<circle class="st0" cx="-47.3" cy="381.9" r="8.5"/>
		<circle class="st0" cx="32.7" cy="341.9" r="8.5"/>
		<circle class="st0" cx="112.7" cy="361.9" r="8.5"/>
		<circle class="st0" cx="112.7" cy="321.9" r="8.5"/>
		<circle class="st0" cx="132.7" cy="361.9" r="8.5"/>
		<circle class="st0" cx="192.7" cy="421.9" r="8.5"/>
		<circle class="st0" cx="132.7" cy="321.9" r="8.5"/>
		<circle class="st0" cx="292.7" cy="341.9" r="8.5"/>
		<circle class="st0" cx="252.7" cy="401.9" r="8.5"/>
		<circle class="st0" cx="252.7" cy="441.9" r="8.5"/>
		<circle class="st0" cx="372.7" cy="421.9" r="8.5"/>
		<circle class="st0" cx="352.7" cy="401.9" r="8.5"/>
		<circle class="st0" cx="352.7" cy="381.9" r="8.5"/>
		<circle class="st0" cx="372.7" cy="341.9" r="8.5"/>
		<circle class="st0" cx="352.7" cy="441.9" r="8.5"/>
		<circle class="st0" cx="72.7" cy="361.9" r="8.5"/>
		<circle class="st0" cx="72.7" cy="321.9" r="8.5"/>
		<circle class="st0" cx="-27.3" cy="341.9" r="8.5"/>
		<circle class="st0" cx="-27.3" cy="321.9" r="8.5"/>
		<circle class="st0" cx="-27.3" cy="381.9" r="8.5"/>
		<circle class="st0" cx="-27.3" cy="421.9" r="8.5"/>
		<circle class="st0" cx="72.7" cy="401.9" r="8.5"/>
		<circle class="st0" cx="112.7" cy="421.9" r="8.5"/>
		<circle class="st0" cx="172.7" cy="441.9" r="8.5"/>
		<circle class="st0" cx="192.7" cy="461.9" r="8.5"/>
		<circle class="st0" cx="132.7" cy="421.9" r="8.5"/>
		<circle class="st0" cx="112.7" cy="421.9" r="8.5"/>
		<circle class="st0" cx="92.7" cy="441.9" r="8.5"/>
		<circle class="st0" cx="172.7" cy="361.9" r="8.5"/>
		<circle class="st0" cx="212.7" cy="401.9" r="8.5"/>
		<circle class="st0" cx="212.7" cy="421.9" r="8.5"/>
		<circle class="st0" cx="212.7" cy="321.9" r="8.5"/>
		<circle class="st0" cx="232.7" cy="281.9" r="8.5"/>
		<circle class="st0" cx="172.7" cy="301.9" r="8.5"/>
		<circle class="st0" cx="152.7" cy="381.9" r="8.5"/>
		<circle class="st0" cx="152.7" cy="301.9" r="8.5"/>
		<circle class="st0" cx="292.7" cy="401.9" r="8.5"/>
		<circle class="st0" cx="332.7" cy="401.9" r="8.5"/>
		<circle class="st0" cx="232.7" cy="361.9" r="8.5"/>
		<circle class="st0" cx="272.7" cy="361.9" r="8.5"/>
		<circle class="st0" cx="312.7" cy="301.9" r="8.5"/>
		<circle class="st0" cx="272.7" cy="301.9" r="8.5"/>
		<circle class="st0" cx="332.7" cy="341.9" r="8.5"/>
		<circle class="st0" cx="272.7" cy="421.9" r="8.5"/>
		<circle class="st0" cx="232.7" cy="441.9" r="8.5"/>
		<circle class="st0" cx="72.7" cy="301.9" r="8.5"/>
		<circle class="st0" cx="52.7" cy="301.9" r="8.5"/>
		<circle class="st0" cx="-67.3" cy="281.9" r="8.5"/>
		<circle class="st0" cx="352.7" cy="281.9" r="8.5"/>
		<circle class="st0" cx="52.7" cy="421.9" r="8.5"/>
		<circle class="st0" cx="-67.3" cy="441.9" r="8.5"/>
		<circle class="st0" cx="32.7" cy="441.9" r="8.5"/>
		<circle class="st0" cx="12.7" cy="421.9" r="8.5"/>
		<circle class="st0" cx="12.7" cy="441.9" r="8.5"/>
	</g>
	<rect x="-174" y="175.2" class="st1" width="653.4" height="451.3"/>
	<g>
		<g>
			<g>
				<path class="st0" d="M275.6,521.8c-3.2,0-5.9-2.6-5.9-5.9c0-3.2,2.6-5.9,5.9-5.9c3.2,0,5.9,2.6,5.9,5.9
					C281.5,519.2,278.8,521.8,275.6,521.8z"/>
			</g>
		</g>
		<g>
			<path class="st0" d="M-7,518.5l-11.5-27.1c-0.2-0.4-0.3-0.8-0.3-1.4c0-1.6,1.3-2.8,2.9-2.8c1.5,0,2.5,0.8,3,2.1l9.5,23.7
				l9.6-23.9c0.4-1,1.4-1.9,2.8-1.9c1.6,0,2.9,1.2,2.9,2.8c0,0.4-0.1,0.9-0.3,1.2L0,518.5c-0.6,1.5-1.7,2.3-3.3,2.3h-0.3
				C-5.3,520.9-6.3,520-7,518.5z"/>
			<path class="st0" d="M14.9,488.9c0-1.7,1.4-2.8,3.2-2.8c1.8,0,3.2,1.1,3.2,2.8v0.3c0,1.7-1.4,2.8-3.2,2.8c-1.8,0-3.2-1.1-3.2-2.8
				V488.9z M15.3,498.2c0-1.6,1.2-2.9,2.8-2.9c1.6,0,2.9,1.3,2.9,2.9v19.6c0,1.6-1.3,2.8-2.9,2.8s-2.8-1.2-2.8-2.8V498.2z"/>
			<path class="st0" d="M25.5,517.9c-0.6-0.3-1.1-1-1.1-2c0-1.3,1-2.3,2.3-2.3c0.5,0,0.9,0.1,1.2,0.3c2.4,1.6,4.9,2.4,7.1,2.4
				c2.4,0,3.9-1,3.9-2.7v-0.1c0-1.9-2.6-2.6-5.5-3.5c-3.7-1-7.8-2.5-7.8-7.3v-0.1c0-4.7,3.9-7.6,8.8-7.6c2.6,0,5.4,0.8,7.8,2
				c0.8,0.4,1.4,1.2,1.4,2.2c0,1.3-1,2.3-2.4,2.3c-0.5,0-0.8-0.1-1.1-0.3c-2-1-4.1-1.7-5.8-1.7c-2.2,0-3.5,1-3.5,2.4v0.1
				c0,1.8,2.7,2.6,5.6,3.5c3.6,1.1,7.7,2.8,7.7,7.2v0.1c0,5.2-4,7.8-9.2,7.8C31.8,520.9,28.4,519.9,25.5,517.9z"/>
			<path class="st0" d="M48.8,488.9c0-1.7,1.4-2.8,3.2-2.8c1.8,0,3.2,1.1,3.2,2.8v0.3c0,1.7-1.4,2.8-3.2,2.8s-3.2-1.1-3.2-2.8V488.9
				z M49.2,498.2c0-1.6,1.2-2.9,2.8-2.9s2.9,1.3,2.9,2.9v19.6c0,1.6-1.3,2.8-2.9,2.8s-2.8-1.2-2.8-2.8
				C49.2,517.8,49.2,498.2,49.2,498.2z"/>
			<path class="st0" d="M62.1,513.6v-13.1h-0.9c-1.4,0-2.4-1.1-2.4-2.4c0-1.4,1.1-2.4,2.4-2.4h0.9v-4.3c0-1.6,1.3-2.8,2.9-2.8
				c1.6,0,2.8,1.3,2.8,2.8v4.2h4.5c1.4,0,2.5,1.1,2.5,2.4c0,1.4-1.1,2.4-2.5,2.4h-4.5v12.2c0,2.2,1.1,3.1,3.1,3.1
				c0.7,0,1.2-0.1,1.4-0.1c1.3,0,2.4,1,2.4,2.4c0,1-0.7,1.9-1.5,2.2c-1.2,0.4-2.4,0.7-3.9,0.7C65,520.8,62.1,519,62.1,513.6z"/>
			<path class="st0" d="M86.8,492.9h-8c-1.5,0-2.7-1.2-2.7-2.7s1.2-2.7,2.7-2.7h21.9c1.5,0,2.6,1.2,2.6,2.7s-1.2,2.7-2.6,2.7h-8
				v24.9c0,1.6-1.3,2.9-2.9,2.9c-1.6,0-2.9-1.3-2.9-2.9v-24.9H86.8z"/>
			<path class="st0" d="M108.1,488.7c0-1.6,1.2-2.8,2.8-2.8s2.9,1.3,2.9,2.8v10.7c1.6-2.3,3.9-4.3,7.8-4.3c5.6,0,8.8,3.8,8.8,9.5
				v13.3c0,1.6-1.2,2.8-2.8,2.8s-2.9-1.2-2.9-2.8v-11.5c0-3.9-1.9-6.1-5.3-6.1c-3.3,0-5.6,2.3-5.6,6.2v11.4c0,1.6-1.3,2.8-2.9,2.8
				c-1.6,0-2.8-1.2-2.8-2.8V488.7z"/>
			<path class="st0" d="M148.7,521c-7.2,0-12.7-5.2-12.7-12.9V508c0-7.1,5-12.9,12.1-12.9c7.9,0,11.8,6.5,11.8,12.2
				c0,1.6-1.2,2.7-2.7,2.7h-15.6c0.6,4,3.5,6.3,7.1,6.3c2.4,0,4.3-0.8,5.9-2.2c0.4-0.3,0.8-0.5,1.5-0.5c1.3,0,2.3,1,2.3,2.3
				c0,0.7-0.3,1.3-0.8,1.7C155.4,519.7,152.5,521,148.7,521z M154.3,506.3c-0.4-3.7-2.5-6.5-6.3-6.5c-3.5,0-5.9,2.7-6.4,6.5H154.3z"
				/>
			<path class="st0" d="M165.8,506.5v-16.3c0-1.6,1.3-2.9,2.9-2.9c1.6,0,2.9,1.3,2.9,2.9v16.1c0,6.1,3.1,9.4,8.3,9.4
				c5.1,0,8.3-3.1,8.3-9.1v-16.3c0-1.6,1.3-2.9,2.9-2.9s2.9,1.3,2.9,2.9v16c0,9.8-5.5,14.8-14.1,14.8
				C171.2,520.9,165.8,516,165.8,506.5z"/>
			<path class="st0" d="M200.1,516.8c-0.7-0.5-1.1-1.3-1.1-2.2c0-1.5,1.2-2.7,2.7-2.7c0.8,0,1.3,0.2,1.7,0.5
				c2.7,2.2,5.6,3.4,9.2,3.4s5.8-1.7,5.8-4.1v-0.1c0-2.3-1.3-3.6-7.4-5c-7-1.7-11-3.8-11-9.8v-0.1c0-5.6,4.7-9.5,11.2-9.5
				c4.1,0,7.5,1.1,10.4,3.1c0.7,0.4,1.3,1.2,1.3,2.3c0,1.5-1.2,2.7-2.7,2.7c-0.6,0-1-0.1-1.5-0.4c-2.5-1.6-5-2.5-7.6-2.5
				c-3.4,0-5.4,1.7-5.4,3.9v0.1c0,2.5,1.5,3.7,7.8,5.2c7,1.7,10.5,4.2,10.5,9.6v0.1c0,6.2-4.8,9.8-11.8,9.8
				C208,520.9,203.8,519.5,200.1,516.8z"/>
			<path class="st0" d="M226.8,516.7l12.2-27.3c0.7-1.5,1.8-2.4,3.5-2.4h0.3c1.6,0,2.8,0.9,3.4,2.4l12.2,27.3
				c0.2,0.4,0.3,0.8,0.3,1.2c0,1.6-1.2,2.8-2.7,2.8c-1.4,0-2.3-0.8-2.8-2l-2.7-6.2h-16l-2.8,6.3c-0.5,1.2-1.5,1.8-2.7,1.8
				c-1.5,0-2.7-1.2-2.7-2.7C226.4,517.6,226.6,517.1,226.8,516.7z M248.3,507.4l-5.8-13.3l-5.8,13.3H248.3z"/>
			<path class="st0" d="M293.1,500.5h-1c-1.3,0-2.4-1-2.4-2.3c0-1.3,1.1-2.4,2.4-2.4h1V494c0-2.7,0.7-4.8,2-6.1s3.1-2,5.6-2
				c1.1,0,2.1,0.1,2.9,0.2c1,0.1,2,1.1,2,2.3c0,1.3-1.1,2.4-2.4,2.3c-0.3,0-0.8-0.1-1.2-0.1c-2.2,0-3.3,1.2-3.3,3.8v1.4h4.4
				c1.4,0,2.4,1,2.4,2.4c0,1.3-1.1,2.3-2.4,2.3h-4.3v17.3c0,1.6-1.3,2.8-2.9,2.8s-2.8-1.3-2.8-2.8L293.1,500.5L293.1,500.5z"/>
			<path class="st0" d="M309.5,498.2c0-1.6,1.2-2.9,2.8-2.9c1.6,0,2.9,1.3,2.9,2.9v2.5c1.3-3.1,3.8-5.5,6.2-5.5
				c1.8,0,2.8,1.2,2.8,2.8c0,1.5-1,2.5-2.3,2.7c-4,0.7-6.8,3.8-6.8,9.7v7.3c0,1.6-1.3,2.8-2.9,2.8s-2.8-1.2-2.8-2.8L309.5,498.2
				L309.5,498.2z"/>
		</g>
	</g>
</g>
<g id="editable" class="st2">
	<text transform="matrix(1 0 0 1 -41.0775 520.4235)" class="st3 st4 st5 st6">V</text>
	<text transform="matrix(1 0 0 1 -17.1775 520.4235)" class="st3 st4 st5">i</text>
	<text transform="matrix(1 0 0 1 -8.1775 520.4235)" class="st3 st4 st5">s</text>
	<text transform="matrix(1 0 0 1 9.3225 520.4235)" class="st3 st4 st5">i</text>
	<text transform="matrix(1 0 0 1 18.9225 520.4235)" class="st3 st4 st5 st6">t</text>
	<text transform="matrix(1 0 0 1 32.3225 520.4235)" class="st3 st4 st5 st6">e</text>
	<text transform="matrix(1 0 0 1 53.8225 520.4235)" class="st3 st4 st5">z</text>
	<text transform="matrix(1 0 0 1 72.5225 520.4235)" class="st3 st4 st5">L</text>
	<text transform="matrix(1 0 0 1 92.8225 520.4235)" class="st3 st4 st5">e</text>
	<text transform="matrix(1 0 0 1 115.3225 520.4235)" class="st3 st4 st5">s</text>
	<text transform="matrix(1 0 0 1 132.9225 520.4235)" class="st3 st4 st5">U</text>
	<text transform="matrix(1 0 0 1 162.5225 520.4235)" class="st3 st4 st5 st6">S</text>
	<text transform="matrix(1 0 0 1 183.2225 520.4235)" class="st3 st4 st5">A </text>
	<text transform="matrix(1 0 0 1 222.7225 520.4235)" class="st3 st4 st5"> </text>
	<text transform="matrix(1 0 0 1 231.2225 520.4235)" class="st3 st4 st5">fr</text>
</g>
</svg>
